<svg width="55" height="43" viewBox="0 0 55 43" fill="none" xmlns="http://www.w3.org/2000/svg">
<g clip-path="url(#clip0_277_66)">
<path d="M46.5598 3.79396C43.0543 2.18548 39.2952 1.00043 35.3648 0.321695C35.2932 0.308596 35.2217 0.341331 35.1848 0.406805C34.7014 1.26667 34.1658 2.38844 33.7908 3.27014C29.5634 2.63726 25.3577 2.63726 21.217 3.27014C20.8419 2.36884 20.2869 1.26667 19.8013 0.406805C19.7644 0.343516 19.6929 0.31078 19.6214 0.321695C15.6931 0.998257 11.934 2.18331 8.42631 3.79396C8.39594 3.80705 8.36992 3.8289 8.35264 3.85725C1.22236 14.5097 -0.730928 24.9004 0.227288 35.1622C0.231623 35.2124 0.259806 35.2605 0.298829 35.291C5.00319 38.7458 9.56016 40.8431 14.0325 42.2333C14.1041 42.2551 14.1799 42.229 14.2255 42.17C15.2834 40.7253 16.2265 39.202 17.035 37.6C17.0828 37.5062 17.0372 37.3949 16.9397 37.3577C15.4438 36.7903 14.0195 36.0985 12.6494 35.3128C12.541 35.2495 12.5323 35.0945 12.632 35.0203C12.9204 34.8043 13.2088 34.5795 13.4841 34.3525C13.5339 34.3111 13.6033 34.3023 13.6618 34.3285C22.6629 38.4381 32.4077 38.4381 41.3026 34.3285C41.3612 34.3001 41.4306 34.3089 41.4826 34.3503C41.7579 34.5773 42.0463 34.8043 42.3368 35.0203C42.4365 35.0945 42.4299 35.2495 42.3216 35.3128C40.9515 36.1137 39.5271 36.7903 38.0291 37.3556C37.9316 37.3927 37.8882 37.5062 37.9359 37.6C38.7618 39.1997 39.7049 40.7231 40.7433 42.1678C40.7867 42.229 40.8647 42.2551 40.9363 42.2333C45.4303 40.8431 49.9873 38.7458 54.6916 35.291C54.7328 35.2605 54.7589 35.2146 54.7632 35.1644C55.91 23.3006 52.8424 12.9951 46.6313 3.85942C46.6161 3.8289 46.5902 3.80705 46.5598 3.79396ZM18.3792 28.9139C15.6693 28.9139 13.4363 26.4259 13.4363 23.3705C13.4363 20.315 15.626 17.8271 18.3792 17.8271C21.1541 17.8271 23.3654 20.3369 23.322 23.3705C23.322 26.4259 21.1324 28.9139 18.3792 28.9139ZM36.6546 28.9139C33.9448 28.9139 31.7118 26.4259 31.7118 23.3705C31.7118 20.315 33.9014 17.8271 36.6546 17.8271C39.4296 17.8271 41.6408 20.3369 41.5975 23.3705C41.5975 26.4259 39.4296 28.9139 36.6546 28.9139Z" fill="white"/>
</g>
<defs>
<clipPath id="clip0_277_66">
<rect width="55" height="42.6056" fill="white"/>
</clipPath>
</defs>
</svg>
