<svg width="34" height="146" viewBox="0 0 34 146" fill="none" xmlns="http://www.w3.org/2000/svg">
<path d="M11.7021 70.2366L10.5469 69.3581C6.22134 66.0689 0 69.1538 0 74.5879L12.6317 84.2564C20.2662 90.0999 24.7436 99.1656 24.7436 108.78V144.075C24.7436 144.643 25.2045 145.104 25.7729 145.104C30.0786 145.104 33.5691 141.614 33.5691 137.308V114.336C33.5691 97.0272 25.4797 80.7133 11.7021 70.2366Z" fill="url(#paint0_linear_246_13)"/>
<path fill-rule="evenodd" clip-rule="evenodd" d="M2.57005e-07 57.2622L0 61.0096C0 64.3071 2.71045 67.0484 5.91264 66.2615C7.65893 65.8324 9.37163 65.213 11.028 64.4087C14.5243 62.7111 17.7011 60.2227 20.3771 57.0859C23.053 53.949 25.1757 50.2249 26.624 46.1264C28.0722 42.0278 28.8176 37.635 28.8176 33.1988C28.8176 28.7626 28.0722 24.3698 26.624 20.2712C25.1757 16.1727 23.053 12.4486 20.3771 9.31174C17.7011 6.17485 14.5243 3.68653 11.028 1.98885C9.37164 1.18459 7.65893 0.565231 5.91264 0.136086C2.71045 -0.650833 1.90735e-06 2.09052 1.90735e-06 5.38799L1.90735e-06 8.99119C2.38621 9.11864 4.73785 9.73156 6.9491 10.8053C9.44967 12.0194 11.7217 13.7991 13.6356 16.0426C15.5495 18.2861 17.0676 20.9496 18.1034 23.8809C19.1391 26.8122 19.6722 29.9539 19.6722 33.1267C19.6722 36.2995 19.1391 39.4413 18.1034 42.3726C17.0676 45.3039 15.5495 47.9673 13.6356 50.2108C11.7217 52.4543 9.44967 54.234 6.9491 55.4482C4.73784 56.5219 2.38621 57.1348 2.57005e-07 57.2622Z" fill="url(#paint1_linear_246_13)"/>
<defs>
<linearGradient id="paint0_linear_246_13" x1="16.7845" y1="61.338" x2="16.7845" y2="145.104" gradientUnits="userSpaceOnUse">
<stop offset="0.44416" stop-color="#DA1DA5"/>
<stop offset="1" stop-color="#00337E"/>
</linearGradient>
<linearGradient id="paint1_linear_246_13" x1="0" y1="33.1988" x2="28.8176" y2="33.1988" gradientUnits="userSpaceOnUse">
<stop offset="0.44416" stop-color="#DA1DA5"/>
<stop offset="1" stop-color="#004BBC"/>
</linearGradient>
</defs>
</svg>
